<svg xmlns="http://www.w3.org/2000/svg" viewBox="-0.5 -0.5 32 32" fill="currentColor" id="Game-Controller--Streamline-Phosphor.svg" height="32" width="32"><desc>Game Controller Streamline Icon: https://streamlinehq.com</desc><path d="M21.3125 13.5625h-2.90625a0.96875 0.96875 0 0 1 0 -1.9375h2.90625a0.96875 0.96875 0 0 1 0 1.9375Zm-8.71875 -1.9375h-0.96875v-0.96875a0.96875 0.96875 0 0 0 -1.9375 0v0.96875h-0.96875a0.96875 0.96875 0 0 0 0 1.9375h0.96875v0.96875a0.96875 0.96875 0 0 0 1.9375 0v-0.96875h0.96875a0.96875 0.96875 0 0 0 0 -1.9375Zm16.64796875 12.6724609375a4.359375 4.359375 0 0 1 -6.6528906249999995 0.5824609374999999c-0.014531249999999999 -0.014531249999999999 -0.029062499999999998 -0.029062499999999998 -0.0423828125 -0.0448046875L17.7378125 19.375h-4.48046875l-4.8037890625 5.460117187500001 -0.0423828125 0.0448046875A4.3690625 4.3690625 0 0 1 5.328125 26.15625a4.359375 4.359375 0 0 1 -4.2915624999999995 -5.1162109375 0.08234375000000001 0.08234375000000001 0 0 1 0 -0.016953125000000003l1.9823046875 -10.1827734375A7.25109375 7.25109375 0 0 1 10.1585546875 4.84375H20.828125a7.2753125 7.2753125 0 0 1 7.14453125 5.9638671875l0 0.021796875 1.9823046875 10.1924609375a0.08234375000000001 0.08234375000000001 0 0 1 0 0.016953125000000003 4.327890625 4.327890625 0 0 1 -0.7132421875 3.2586328125ZM20.828125 17.4375a5.328125 5.328125 0 0 0 0 -10.65625H10.1585546875a5.3160156249999995 5.3160156249999995 0 0 0 -5.2324609375 4.4041796875l0 0.0157421875 -1.983515625 10.1827734375A2.421875 2.421875 0 0 0 7.0234375 23.528515625l5.07625 -5.762851562500001a0.96875 0.96875 0 0 1 0.7265625 -0.3281640625Zm7.229296875 3.9464453125000003 -1.058359375 -5.44921875A7.265625 7.265625 0 0 1 20.828125 19.375h-0.5085937500000001l3.6570312499999997 4.1547265625000005a2.4327734375 2.4327734375 0 0 0 2.114296875 0.6526953125 2.421875 2.421875 0 0 0 1.9653515625 -2.7984765625Z" stroke-width="1"></path></svg>